<svg width="34" height="34" viewBox="0 0 34 34" fill="none" xmlns="http://www.w3.org/2000/svg">
<path fill-rule="evenodd" clip-rule="evenodd" d="M4.97919 29.0208C3.40059 27.4422 2.14838 25.5682 1.29405 23.5056C0.439718 21.4431 1.66332e-08 19.2325 0 17C-1.66332e-08 14.7675 0.439718 12.5569 1.29405 10.4944C2.14838 8.43185 3.40059 6.55778 4.97919 4.97919C6.55778 3.40059 8.43185 2.14838 10.4944 1.29405C12.5569 0.439718 14.7675 -1.66332e-08 17 0C19.2325 1.66332e-08 21.4431 0.439718 23.5056 1.29405C25.5682 2.14838 27.4422 3.40059 29.0208 4.97919C32.2089 8.1673 34 12.4913 34 17C34 21.5087 32.2089 25.8327 29.0208 29.0208C25.8327 32.2089 21.5087 34 17 34C12.4913 34 8.1673 32.2089 4.97919 29.0208ZM12.8139 10.5614C12.5117 10.2799 12.1122 10.1266 11.6993 10.1339C11.2864 10.1412 10.8925 10.3085 10.6005 10.6005C10.3085 10.8925 10.1412 11.2864 10.1339 11.6993C10.1266 12.1122 10.2799 12.5117 10.5614 12.8139L14.7476 17L10.5614 21.1861C10.4048 21.332 10.2792 21.508 10.1921 21.7035C10.105 21.899 10.0582 22.11 10.0544 22.324C10.0506 22.538 10.09 22.7505 10.1702 22.949C10.2503 23.1474 10.3696 23.3277 10.521 23.479C10.6723 23.6304 10.8526 23.7497 11.051 23.8298C11.2495 23.91 11.462 23.9494 11.676 23.9456C11.89 23.9418 12.101 23.895 12.2965 23.8079C12.492 23.7208 12.668 23.5952 12.8139 23.4386L17 19.2524L21.1861 23.4386C21.332 23.5952 21.508 23.7208 21.7035 23.8079C21.899 23.895 22.11 23.9418 22.324 23.9456C22.538 23.9494 22.7505 23.91 22.949 23.8298C23.1474 23.7497 23.3277 23.6304 23.479 23.479C23.6304 23.3277 23.7497 23.1474 23.8298 22.949C23.91 22.7505 23.9494 22.538 23.9456 22.324C23.9418 22.11 23.895 21.899 23.8079 21.7035C23.7208 21.508 23.5952 21.332 23.4386 21.1861L19.2524 17L23.4386 12.8139C23.5952 12.668 23.7208 12.492 23.8079 12.2965C23.895 12.101 23.9418 11.89 23.9456 11.676C23.9494 11.462 23.91 11.2495 23.8298 11.051C23.7497 10.8526 23.6304 10.6723 23.479 10.521C23.3277 10.3696 23.1474 10.2503 22.949 10.1702C22.7505 10.09 22.538 10.0506 22.324 10.0544C22.11 10.0582 21.899 10.105 21.7035 10.1921C21.508 10.2792 21.332 10.4048 21.1861 10.5614L17 14.7476L12.8139 10.5614Z" fill="#DA792D"/>
</svg>
