<svg width="22" height="22" viewBox="0 0 22 22" fill="none" xmlns="http://www.w3.org/2000/svg">
<g id="Close">
<path id="Vector" d="M12.2715 10.9986L18.7168 3.31579C18.8248 3.18811 18.734 2.99414 18.567 2.99414H16.6077C16.4923 2.99414 16.3818 3.0457 16.3056 3.1341L10.9898 9.47137L5.67395 3.1341C5.60029 3.0457 5.4898 2.99414 5.37194 2.99414H3.41257C3.2456 2.99414 3.15476 3.18811 3.26279 3.31579L9.7081 10.9986L3.26279 18.6814C3.23859 18.7099 3.22306 18.7447 3.21806 18.7817C3.21305 18.8187 3.21877 18.8564 3.23454 18.8903C3.25031 18.9241 3.27546 18.9528 3.30702 18.9728C3.33858 18.9928 3.37521 19.0033 3.41257 19.0031H5.37194C5.48734 19.0031 5.59784 18.9515 5.67395 18.8631L10.9898 12.5258L16.3056 18.8631C16.3793 18.9515 16.4898 19.0031 16.6077 19.0031H18.567C18.734 19.0031 18.8248 18.8091 18.7168 18.6814L12.2715 10.9986Z" fill="black" fill-opacity="0.85"/>
</g>
</svg>
