<svg width="125" height="125" viewBox="0 0 125 125" fill="none" xmlns="http://www.w3.org/2000/svg">
<path d="M62.3336 0C28.0501 0 0 28.0501 0 62.3336C0 96.6172 28.0501 124.667 62.3336 124.667C96.6172 124.667 124.667 96.6172 124.667 62.3336C124.667 28.0501 96.6172 0 62.3336 0ZM88.5138 51.7369L58.5936 81.6571C56.1003 84.1504 52.3603 84.1504 49.8669 81.6571L36.1535 67.9437C33.6602 65.4503 33.6602 61.7103 36.1535 59.217C38.6469 56.7236 42.3869 56.7236 44.8802 59.217L54.2303 68.567L79.7871 43.0102C82.2804 40.5169 86.0204 40.5169 88.5138 43.0102C91.0071 45.5036 91.0071 49.2436 88.5138 51.7369Z" fill="#2B9BDA"/>
</svg>
