<svg width="130" height="103" viewBox="0 0 130 103" fill="none" xmlns="http://www.w3.org/2000/svg">
<path d="M129.5 90.0987C128.763 93.0394 127.48 95.6821 125.33 97.8705C122.404 100.849 118.822 102.236 114.694 102.243C102.778 102.262 90.8588 102.251 78.9434 102.251C57.7934 102.251 36.6473 102.259 15.4974 102.247C8.58494 102.243 2.59284 97.7139 0.916277 91.2826C0.652762 90.2667 0.5 89.2356 0.5 88.1777C0.511457 67.4899 0.496181 46.8021 0.511457 26.1181C0.519095 18.7168 7.08787 12.064 14.4968 11.9914C20.7906 11.9265 27.0844 11.9761 33.3782 11.9723C34.5443 11.9723 35.1732 11.4071 35.2648 10.2766C35.6277 5.7167 40.138 1.16057 44.7246 0.633536C46.3134 0.446402 47.8983 0.400573 49.4908 0.400573C60.5279 0.404392 71.5611 0.392935 82.5982 0.408212C85.3403 0.408212 87.9105 1.01544 90.1676 2.68819C92.8065 4.64354 94.3762 7.25578 94.7122 10.4943C94.8497 11.8157 95.3958 11.999 96.5377 11.9914C102.453 11.9418 108.377 12.1136 114.285 11.9341C122.297 11.6935 128.079 17.5596 129.298 23.2882C129.34 23.4906 129.431 23.6853 129.5 23.8801V90.0987ZM65.0153 95.3422C76.4724 95.3422 87.9258 95.3422 99.3829 95.3422C104.462 95.3422 109.538 95.3346 114.613 95.3461C115.931 95.3461 117.203 95.2086 118.398 94.6052C121.724 92.9286 122.908 90.072 122.908 86.5355C122.908 69.2046 122.908 51.8738 122.908 34.5429C122.908 31.7741 122.939 29.0015 122.882 26.2365C122.801 22.3028 119.735 18.9879 115.839 18.9192C108.415 18.7855 100.987 18.8466 93.5589 18.8161C92.7225 18.8161 91.8785 18.774 91.0498 18.6709C89.3617 18.4609 88.174 17.1318 88.1282 15.4324C88.1015 14.4241 88.1396 13.4159 88.1129 12.4115C88.0213 8.83304 86.253 7.09538 82.6899 7.09538C70.9806 7.09156 59.2752 7.09538 47.566 7.09538C47.44 7.09538 47.314 7.09538 47.1879 7.09538C43.9761 7.14502 42.2193 8.90943 42.1964 12.1098C42.1888 13.118 42.2232 14.1263 42.1812 15.1307C42.0971 17.1777 40.8712 18.4838 38.8357 18.6977C38.0871 18.7779 37.331 18.8161 36.5748 18.8161C29.5668 18.8275 22.5589 18.9001 15.5509 18.797C10.6319 18.7244 7.2139 22.2952 7.2139 26.9277C7.2139 47.0274 7.21008 67.1271 7.22153 87.2268C7.22153 88.5787 7.43922 89.9116 8.10374 91.1146C9.74211 94.0858 12.278 95.3652 15.6616 95.3575C32.1103 95.3155 48.559 95.3384 65.0076 95.3384L65.0153 95.3422Z" fill="white" stroke="white" stroke-width="0.5"/>
<path d="M65.0977 21.0392C81.8404 21.0506 95.3675 34.6464 95.3331 51.4274C95.2988 68.0708 81.6571 81.6399 64.9831 81.617C48.2786 81.5941 34.7171 67.9409 34.7553 51.1829C34.7897 34.509 48.3626 21.0277 65.1015 21.043L65.0977 21.0392ZM64.9526 74.7198C77.6853 74.7771 88.2106 64.542 88.4092 52.1568C88.6269 38.6106 78.3078 28.0662 65.0213 28.0891C50.7953 28.112 41.8587 39.3706 41.7251 51.0722C41.5723 64.2938 51.8265 74.6587 64.9564 74.716L64.9526 74.7198Z" fill="white" stroke="white" stroke-width="0.5"/>
<path d="M114.773 53.0041C114.78 56.4145 112.034 59.1948 108.658 59.1986C105.347 59.2024 102.483 56.3076 102.51 52.9774C102.54 49.6434 105.439 46.7943 108.746 46.844C112.076 46.8975 114.765 49.6434 114.773 53.0003V53.0041Z" fill="white" stroke="white" stroke-width="0.5"/>
</svg>
