<svg width="100" height="100" viewBox="0 0 100 100" fill="none" xmlns="http://www.w3.org/2000/svg">
<path fill-rule="evenodd" clip-rule="evenodd" d="M14.6447 85.3553C10.0017 80.7124 6.31876 75.2005 3.80602 69.1342C1.29329 63.0679 4.89212e-08 56.5661 0 50C-4.89212e-08 43.4339 1.29329 36.9321 3.80602 30.8658C6.31876 24.7995 10.0017 19.2876 14.6447 14.6447C19.2876 10.0017 24.7995 6.31876 30.8658 3.80602C36.9321 1.29329 43.4339 -4.89212e-08 50 0C56.5661 4.89212e-08 63.0679 1.29329 69.1342 3.80602C75.2005 6.31876 80.7124 10.0017 85.3553 14.6447C94.7322 24.0215 100 36.7392 100 50C100 63.2608 94.7322 75.9785 85.3553 85.3553C75.9785 94.7322 63.2608 100 50 100C36.7392 100 24.0215 94.7322 14.6447 85.3553ZM37.6878 31.063C36.7992 30.235 35.624 29.7843 34.4096 29.8057C33.1953 29.8271 32.0367 30.319 31.1778 31.1778C30.319 32.0367 29.8271 33.1953 29.8057 34.4096C29.7843 35.624 30.235 36.7992 31.063 37.6878L43.3752 50L31.063 62.3122C30.6025 62.7413 30.2331 63.2588 29.9769 63.8338C29.7207 64.4088 29.5829 65.0295 29.5718 65.6588C29.5607 66.2882 29.6765 66.9134 29.9123 67.497C30.148 68.0807 30.4989 68.6109 30.944 69.056C31.3891 69.5011 31.9193 69.852 32.503 70.0878C33.0866 70.3235 33.7118 70.4393 34.3412 70.4282C34.9705 70.4171 35.5912 70.2793 36.1662 70.0231C36.7412 69.7669 37.2587 69.3975 37.6878 68.937L50 56.6248L62.3122 68.937C62.7413 69.3975 63.2588 69.7669 63.8338 70.0231C64.4088 70.2793 65.0295 70.4171 65.6588 70.4282C66.2882 70.4393 66.9134 70.3235 67.497 70.0878C68.0807 69.852 68.6109 69.5011 69.056 69.056C69.5011 68.6109 69.852 68.0807 70.0878 67.497C70.3235 66.9134 70.4393 66.2882 70.4282 65.6588C70.4171 65.0295 70.2793 64.4088 70.0231 63.8338C69.7669 63.2588 69.3975 62.7413 68.937 62.3122L56.6248 50L68.937 37.6878C69.3975 37.2587 69.7669 36.7412 70.0231 36.1662C70.2793 35.5912 70.4171 34.9705 70.4282 34.3412C70.4393 33.7118 70.3235 33.0866 70.0878 32.503C69.852 31.9193 69.5011 31.3891 69.056 30.944C68.6109 30.4989 68.0807 30.148 67.497 29.9123C66.9134 29.6765 66.2882 29.5607 65.6588 29.5718C65.0295 29.5829 64.4088 29.7207 63.8338 29.9769C63.2588 30.2331 62.7413 30.6025 62.3122 31.063L50 43.3752L37.6878 31.063Z" fill="#DA792D"/>
</svg>
